<?xml version="1.0" encoding="UTF-8"?>
<svg width="314px" height="73px" viewBox="0 0 314 73" version="1.1" xmlns="http://www.w3.org/2000/svg" xmlns:xlink="http://www.w3.org/1999/xlink">
    <title>Artboard</title>
    <g id="Artboard" stroke="none" stroke-width="1" fill="none" fill-rule="evenodd">
        <rect id="Rectangle" fill="#FFCC33" fill-rule="nonzero" transform="translate(49.836858, 31.443441) rotate(45.000000) translate(-49.836858, -31.443441) " x="33.8942647" y="15.5008481" width="31.8851864" height="31.8851864"></rect>
        <rect id="Rectangle" fill="#FFFFFF" fill-rule="nonzero" transform="translate(57.292866, 56.461933) rotate(45.000000) translate(-57.292866, -56.461933) " x="53.6429011" y="52.8119682" width="7.29992999" height="7.29992999"></rect>
        <rect id="Rectangle" fill="#CC3333" fill-rule="nonzero" transform="translate(31.191841, 45.541897) rotate(45.000000) translate(-31.191841, -45.541897) " x="27.5418759" y="41.8919323" width="7.29992999" height="7.29992999"></rect>
        <rect id="Rectangle" fill="#336699" fill-rule="nonzero" transform="translate(35.215253, 9.376109) rotate(45.000000) translate(-35.215253, -9.376109) " x="28.6150572" y="2.77591288" width="13.2003915" height="13.2003915"></rect>
        <rect id="Rectangle" fill="#006666" fill-rule="nonzero" transform="translate(16.469587, 21.089220) rotate(45.000000) translate(-16.469587, -21.089220) " x="4.87669273" y="9.49632563" width="23.185788" height="23.185788"></rect>
        <rect id="Rectangle" fill="#FF6633" fill-rule="nonzero" transform="translate(38.964344, 60.448115) rotate(45.000000) translate(-38.964344, -60.448115) " x="30.1892985" y="51.6730699" width="17.5500908" height="17.5500908"></rect>
        <path d="M88.3943005,19.6683938 L94.446114,19.6683938 C98.7580311,19.6683938 101.367876,22.2782383 101.367876,26.6658031 C101.367876,31.2803109 98.7580311,33.7766839 94.446114,33.7766839 L88.3943005,33.7766839 L88.3943005,19.6683938 Z M92.0632124,30.6373057 L93.8031088,30.6373057 C96.6020725,30.561658 97.6989637,29.5025907 97.6989637,26.6658031 C97.6989637,24.0937824 96.2994819,22.8455959 93.8031088,22.8455959 L92.0632124,22.8455959 L92.0632124,30.6373057 Z" id="Shape" fill="#FFFFFF" fill-rule="nonzero"></path>
        <path d="M106.890155,22.2404145 L103.523834,22.2404145 L103.523834,19.6683938 L106.890155,19.6683938 L106.890155,22.2404145 Z M103.523834,23.5264249 L106.890155,23.5264249 L106.890155,33.7766839 L103.523834,33.7766839 L103.523834,23.5264249 Z" id="Shape" fill="#FFFFFF" fill-rule="nonzero"></path>
        <path d="M119.334197,32.5663212 C119.334197,34.2305699 119.031606,37.407772 114.227979,37.407772 C111.845078,37.407772 109.575648,36.8782383 109.197409,34.1170984 L112.563731,34.1170984 C112.639378,34.5709845 112.828497,34.8357513 113.131088,35.0248705 C113.433679,35.1761658 113.849741,35.2518135 114.341451,35.2518135 C115.930052,35.2518135 116.081347,34.1170984 116.081347,32.8689119 L116.081347,31.8854922 L116.043523,31.8854922 C115.438342,32.8310881 114.417098,33.3984456 113.320207,33.3984456 C110.218653,33.3984456 108.819171,31.1668394 108.819171,28.292228 C108.819171,25.5689119 110.407772,23.261658 113.320207,23.261658 C114.53057,23.261658 115.476166,23.7911917 116.081347,24.8502591 L116.119171,24.8502591 L116.119171,23.5642487 L119.334197,23.5642487 L119.334197,32.5663212 Z M114.152332,25.7958549 C112.677202,25.7958549 112.185492,27.0818653 112.185492,28.3678756 C112.185492,29.5782383 112.75285,30.788601 114.114508,30.788601 C115.551813,30.788601 116.156995,29.6917098 116.156995,28.4056995 C116.156995,27.0818653 115.665285,25.7958549 114.152332,25.7958549 Z" id="Shape" fill="#FFFFFF" fill-rule="nonzero"></path>
        <path d="M125.121244,22.2404145 L121.792746,22.2404145 L121.792746,19.6683938 L125.159067,19.6683938 L125.159067,22.2404145 L125.121244,22.2404145 Z M121.792746,23.5264249 L125.159067,23.5264249 L125.159067,33.7766839 L121.792746,33.7766839 L121.792746,23.5264249 Z" id="Shape" fill="#FFFFFF" fill-rule="nonzero"></path>
        <path d="M133.858549,25.7202073 L131.778238,25.7202073 L131.778238,30.3725389 C131.778238,31.1668394 132.269948,31.3559585 132.988601,31.3559585 C133.253368,31.3559585 133.555959,31.3181347 133.858549,31.3181347 L133.858549,33.7766839 C133.253368,33.8145078 132.648187,33.8901554 132.005181,33.8901554 C129.13057,33.8901554 128.411917,33.0580311 128.411917,30.2590674 L128.411917,25.7202073 L126.709845,25.7202073 L126.709845,23.5642487 L128.411917,23.5642487 L128.411917,20.4248705 L131.778238,20.4248705 L131.778238,23.5264249 L133.858549,23.5264249 L133.858549,25.7202073 Z" id="Path" fill="#FFFFFF" fill-rule="nonzero"></path>
        <path d="M135.371503,26.7036269 C135.44715,25.3419689 136.052332,24.4720207 136.960104,23.942487 C137.867876,23.4129534 139.040415,23.2238342 140.212953,23.2238342 C142.633679,23.2238342 144.978756,23.7533679 144.978756,26.6658031 L144.978756,31.1668394 C144.978756,32.0367876 144.978756,32.9823834 145.356995,33.7766839 L141.990674,33.7766839 C141.877202,33.4740933 141.839378,33.1336788 141.801554,32.7932642 C140.931606,33.7010363 139.645596,34.0414508 138.435233,34.0414508 C136.468394,34.0414508 134.95544,33.0580311 134.95544,30.9398964 C134.95544,27.611399 138.586528,27.838342 140.931606,27.384456 C141.498964,27.2709845 141.839378,27.0818653 141.839378,26.4388601 C141.839378,25.6823834 140.893782,25.3797927 140.212953,25.3797927 C139.267358,25.3797927 138.7,25.7958549 138.548705,26.6658031 L135.371503,26.6658031 L135.371503,26.7036269 Z M139.721244,31.9989637 C141.309845,31.9989637 141.839378,31.0911917 141.763731,28.973057 C141.272021,29.2756477 140.402073,29.3134715 139.68342,29.5404145 C138.926943,29.7295337 138.283938,30.0321244 138.283938,30.8264249 C138.321762,31.6963731 138.964767,31.9989637 139.721244,31.9989637 Z" id="Shape" fill="#FFFFFF" fill-rule="nonzero"></path>
        <polygon id="Path" fill="#FFFFFF" fill-rule="nonzero" points="147.512953 19.6683938 150.879275 19.6683938 150.879275 33.7766839 147.512953 33.7766839"></polygon>
        <polygon id="Path" fill="#FFFFFF" fill-rule="nonzero" points="159.919171 19.6683938 171.15285 19.6683938 171.15285 22.6186528 163.588083 22.6186528 163.588083 25.0772021 170.509845 25.0772021 170.509845 27.9139896 163.588083 27.9139896 163.588083 30.5994819 171.341969 30.5994819 171.341969 33.7766839 159.881347 33.7766839 159.881347 19.6683938"></polygon>
        <path d="M173.346632,26.7036269 C173.42228,25.3419689 174.027461,24.4720207 174.935233,23.942487 C175.843005,23.4129534 177.015544,23.2238342 178.188083,23.2238342 C180.608808,23.2238342 182.953886,23.7533679 182.953886,26.6658031 L182.953886,31.1668394 C182.953886,32.0367876 182.953886,32.9823834 183.332124,33.7766839 L179.965803,33.7766839 C179.852332,33.4740933 179.814508,33.1336788 179.776684,32.7932642 C178.906736,33.7010363 177.620725,34.0414508 176.410363,34.0414508 C174.443523,34.0414508 172.93057,33.0580311 172.93057,30.9398964 C172.93057,27.611399 176.561658,27.838342 178.906736,27.384456 C179.474093,27.2709845 179.814508,27.0818653 179.814508,26.4388601 C179.814508,25.6823834 178.868912,25.3797927 178.188083,25.3797927 C177.242487,25.3797927 176.67513,25.7958549 176.523834,26.6658031 L173.346632,26.6658031 L173.346632,26.7036269 Z M177.696373,31.9989637 C179.284974,31.9989637 179.814508,31.0911917 179.73886,28.973057 C179.24715,29.2756477 178.377202,29.3134715 177.658549,29.5404145 C176.902073,29.7295337 176.259067,30.0321244 176.259067,30.8264249 C176.296891,31.6963731 176.939896,31.9989637 177.696373,31.9989637 Z" id="Shape" fill="#FFFFFF" fill-rule="nonzero"></path>
        <path d="M185.488083,23.5264249 L188.740933,23.5264249 L188.740933,25.3419689 L188.778756,25.3419689 C189.270466,24.0559585 190.405181,23.3373057 191.880311,23.3373057 C192.145078,23.3373057 192.409845,23.3751295 192.674611,23.4129534 L192.674611,26.4766839 C192.258549,26.3632124 191.842487,26.2875648 191.388601,26.2875648 C189.724352,26.2875648 188.854404,27.4222798 188.854404,28.7082902 L188.854404,33.7766839 L185.488083,33.7766839 L185.488083,23.5264249 L185.488083,23.5264249 Z" id="Path" fill="#FFFFFF" fill-rule="nonzero"></path>
        <path d="M200.125907,25.7202073 L198.045596,25.7202073 L198.045596,30.3725389 C198.045596,31.1668394 198.537306,31.3559585 199.255959,31.3559585 C199.520725,31.3559585 199.823316,31.3181347 200.125907,31.3181347 L200.125907,33.7766839 C199.520725,33.8145078 198.915544,33.8901554 198.272539,33.8901554 C195.397927,33.8901554 194.679275,33.0580311 194.679275,30.2590674 L194.679275,25.7202073 L192.977202,25.7202073 L192.977202,23.5642487 L194.679275,23.5642487 L194.679275,20.4248705 L198.045596,20.4248705 L198.045596,23.5264249 L200.125907,23.5264249 L200.125907,25.7202073 Z" id="Path" fill="#FFFFFF" fill-rule="nonzero"></path>
        <path d="M201.790155,19.6683938 L205.156477,19.6683938 L205.156477,24.9259067 L205.194301,24.9259067 C205.723834,23.8668394 207.085492,23.2238342 208.333679,23.2238342 C211.737824,23.2238342 212.040415,25.7202073 212.040415,27.1953368 L212.040415,33.7766839 L208.674093,33.7766839 L208.674093,28.8217617 C208.674093,27.4222798 208.825389,25.9849741 207.009845,25.9849741 C205.761658,25.9849741 205.194301,27.0440415 205.194301,28.1787565 L205.194301,33.7766839 L201.827979,33.7766839 L201.827979,19.6683938 L201.790155,19.6683938 Z" id="Path" fill="#FFFFFF" fill-rule="nonzero"></path>
        <g id="Group" transform="translate(110.000000, 40.963212)" fill="#FFFFFF" fill-rule="nonzero">
            <path d="M4.38756477,0.340414508 L6.50569948,0.340414508 L10.9310881,11.8010363 L8.77512953,11.8010363 L7.71606218,8.77512953 L3.13937824,8.77512953 L2.08031088,11.8010363 L2.66453526e-14,11.8010363 L4.38756477,0.340414508 Z M3.66891192,7.22435233 L7.14870466,7.22435233 L5.44663212,2.30725389 L5.40880829,2.30725389 L3.66891192,7.22435233 Z" id="Shape"></path>
            <polygon id="Path" points="12.0279793 0.340414508 19.9331606 0.340414508 19.9331606 2.08031088 14.0326425 2.08031088 14.0326425 5.06839378 19.2145078 5.06839378 19.2145078 6.69481865 14.0326425 6.69481865 14.0326425 11.7632124 12.0279793 11.7632124 12.0279793 0.340414508"></polygon>
            <path d="M21.5217617,0.340414508 L27.0062176,0.340414508 C29.5025907,0.340414508 30.788601,1.51295337 30.788601,3.44196891 C30.788601,5.6357513 29.2756477,6.20310881 28.8974093,6.31658031 L28.8974093,6.35440415 C29.5782383,6.46787565 30.5994819,6.95958549 30.5994819,8.77512953 C30.5994819,10.0989637 30.788601,11.3093264 31.242487,11.8010363 L29.0865285,11.8010363 C28.7839378,11.3093264 28.7839378,10.6663212 28.7839378,10.0989637 C28.7839378,7.98082902 28.3678756,7.07305699 26.5145078,7.07305699 L23.5642487,7.07305699 L23.5642487,11.8010363 L21.5595855,11.8010363 L21.5595855,0.340414508 L21.5217617,0.340414508 Z M23.5264249,5.56010363 L26.8170984,5.56010363 C28.065285,5.56010363 28.7839378,4.91709845 28.7839378,3.74455959 C28.7839378,2.26943005 27.838342,2.00466321 26.7792746,2.00466321 L23.5264249,2.00466321 L23.5264249,5.56010363 L23.5264249,5.56010363 Z" id="Shape"></path>
            <polygon id="Path" points="32.8310881 0.340414508 34.8357513 0.340414508 34.8357513 11.8010363 32.8310881 11.8010363"></polygon>
            <path d="M45.0103627,3.97150259 C44.6699482,2.64766839 43.8378238,1.70207254 42.1735751,1.70207254 C39.7150259,1.70207254 38.6937824,3.85803109 38.6937824,6.05181347 C38.6937824,8.24559585 39.7150259,10.4015544 42.1735751,10.4015544 C43.9512953,10.4015544 44.934715,9.07772021 45.0860104,7.4134715 L47.0528497,7.4134715 C46.9015544,10.1367876 44.934715,12.0279793 42.1735751,12.0279793 C38.7316062,12.0279793 36.6891192,9.30466321 36.6891192,6.01398964 C36.6891192,2.7611399 38.7316062,-1.77635684e-15 42.1735751,-1.77635684e-15 C44.7455959,-1.77635684e-15 46.7880829,1.4373057 47.0150259,3.89585492 L45.0103627,3.89585492 L45.0103627,3.97150259 Z" id="Path"></path>
            <path d="M51.9321244,0.340414508 L54.0502591,0.340414508 L58.4756477,11.8010363 L56.3196891,11.8010363 L55.2606218,8.77512953 L50.6839378,8.77512953 L49.6248705,11.8010363 L47.5445596,11.8010363 L51.9321244,0.340414508 Z M51.2134715,7.22435233 L54.6932642,7.22435233 L52.9911917,2.30725389 L52.9533679,2.30725389 L51.2134715,7.22435233 Z" id="Shape"></path>
        </g>
        <path d="M288.05169,33.8418738 C288.05169,34.2397612 287.808451,34.4828597 287.410423,34.4828597 L285.055634,34.4828597 L285.055634,28.5569443 L287.410423,28.5569443 C287.808451,28.5569443 288.05169,28.8001837 288.05169,29.1982119 L288.05169,33.8418738 Z M287.598451,27.8382119 L284.479014,27.8382119 C284.37,27.8382119 284.281549,27.9265217 284.281549,28.0356766 L284.281549,35.0041274 C284.281549,35.1131414 284.37,35.2015921 284.479014,35.2015921 L287.598451,35.2015921 C288.306056,35.2015921 288.825634,34.681733 288.825634,33.9745499 L288.825634,29.0655358 C288.825634,28.3472259 288.306056,27.8382119 287.598451,27.8382119 L287.598451,27.8382119 Z" id="Fill-1" fill="#FFFFFF" fill-rule="nonzero"></path>
        <path d="M291.904507,37.7094795 L289.543239,37.7094795 C289.434085,37.7094795 289.345775,37.7979302 289.345775,37.9068034 L289.345775,38.6731414 C289.345775,38.7821555 289.434085,38.8704654 289.543239,38.8704654 L290.830423,38.8704654 L290.830423,44.875395 C290.830423,44.984409 290.918873,45.0728597 291.027887,45.0728597 L291.904507,45.0728597 C292.01338,45.0728597 292.101831,44.984409 292.101831,44.875395 L292.101831,37.9068034 C292.101831,37.7979302 292.01338,37.7094795 291.904507,37.7094795" id="Fill-2" fill="#FFFFFF" fill-rule="nonzero"></path>
        <path d="M287.366197,43.6245499 C287.366197,43.7903245 287.233521,43.9121555 287.067746,43.9121555 L285.851549,43.9121555 C285.685634,43.9121555 285.553099,43.7903245 285.553099,43.6245499 L285.553099,42.6406062 C285.553099,42.4746907 285.641549,42.3420147 285.851549,42.2756766 C286.116901,42.1870851 286.791268,42.0542682 287.067746,42.0542682 C287.255634,42.0542682 287.366197,42.17624 287.366197,42.3420147 L287.366197,43.6245499 Z M287.465634,40.8497612 C286.923944,40.8497612 286.15,40.9824372 285.553099,41.1701837 L285.553099,39.1577893 C285.553099,38.9918738 285.685634,38.8704654 285.851549,38.8704654 L287.979014,38.8704654 C288.088028,38.8704654 288.176479,38.7821555 288.176479,38.6731414 L288.176479,37.9068034 C288.176479,37.7979302 288.088028,37.7094795 287.979014,37.7094795 L285.453521,37.7094795 C284.801268,37.7094795 284.281549,38.2291978 284.281549,38.8704654 L284.281549,43.9121555 C284.281549,44.5531414 284.790282,45.0728597 285.431549,45.0728597 L287.465634,45.0728597 C288.118028,45.0728597 288.637606,44.5531414 288.637606,43.9121555 L288.637606,42.0104654 C288.637606,41.3691978 288.217606,40.8497612 287.465634,40.8497612 L287.465634,40.8497612 Z" id="Fill-3" fill="#FFFFFF" fill-rule="nonzero"></path>
        <path d="M300.020141,27.8382119 L295.251831,27.8382119 C295.142958,27.8382119 295.054507,27.9265217 295.054507,28.0356766 L295.054507,28.3594795 C295.054507,28.4684935 295.142958,28.5569443 295.251831,28.5569443 L297.254648,28.5569443 L297.254648,35.0041274 C297.254648,35.1131414 297.343099,35.2015921 297.451972,35.2015921 L297.831127,35.2015921 C297.940141,35.2015921 298.028451,35.1131414 298.028451,35.0041274 L298.028451,28.5569443 L300.020141,28.5569443 C300.129155,28.5569443 300.217606,28.4684935 300.217606,28.3594795 L300.217606,28.0356766 C300.217606,27.9265217 300.129155,27.8382119 300.020141,27.8382119" id="Fill-4" fill="#FFFFFF" fill-rule="nonzero"></path>
        <path d="M291.460423,32.5925781 L292.698732,28.8001837 L293.925915,32.5925781 L291.460423,32.5925781 Z M295.516056,34.9407471 L295.516056,34.9407471 L293.109014,27.9700428 C293.081831,27.893564 293.008451,27.8382119 292.922817,27.8382119 L292.474366,27.8382119 C292.388732,27.8382119 292.315493,27.893564 292.28831,27.9700428 L289.881831,34.9394795 C289.874507,34.959902 289.869718,34.9811696 289.869718,35.0041274 C289.869718,35.1131414 289.958169,35.2015921 290.067183,35.2015921 L290.434085,35.2015921 C290.518873,35.2015921 290.590563,35.1475076 290.618732,35.0725781 L290.619437,35.0728597 L291.217183,33.2997612 L294.158028,33.2997612 L294.774366,35.0666626 L294.774366,35.06624 C294.800563,35.144409 294.874225,35.2015921 294.961408,35.2015921 L295.329437,35.2015921 C295.438451,35.2015921 295.526901,35.1131414 295.526901,35.0041274 C295.526901,34.9815921 295.523099,34.9608879 295.516056,34.9407471 L295.516056,34.9407471 Z" id="Fill-5" fill="#FFFFFF" fill-rule="nonzero"></path>
        <path d="M301.417465,32.5925781 L302.655775,28.8001837 L303.882817,32.5925781 L301.417465,32.5925781 Z M305.473099,34.9407471 L305.473099,34.9407471 L303.066056,27.9700428 C303.038732,27.893564 302.965634,27.8382119 302.879718,27.8382119 L302.431549,27.8382119 C302.345634,27.8382119 302.272535,27.893564 302.245211,27.9700428 L299.81662,34.9273668 L299.838873,34.9394795 C299.83169,34.959902 299.826901,34.9811696 299.826901,35.0041274 C299.826901,35.1131414 299.915211,35.2015921 300.024225,35.2015921 L300.390986,35.2015921 C300.475915,35.2015921 300.547746,35.1475076 300.575634,35.0725781 L300.576479,35.0728597 L301.174225,33.2997612 L304.11507,33.2997612 L304.731408,35.0666626 L304.731408,35.06624 C304.757606,35.144409 304.831408,35.2015921 304.918451,35.2015921 L305.286479,35.2015921 C305.395634,35.2015921 305.483944,35.1131414 305.483944,35.0041274 C305.483944,34.9815921 305.48,34.9608879 305.473099,34.9407471 L305.473099,34.9407471 Z" id="Fill-6" fill="#FFFFFF" fill-rule="nonzero"></path>
        <path d="M313.566761,28.9842682 C313.651831,29.0383527 313.71169,29.1293386 313.71169,29.2375076 C313.71169,29.241733 313.71169,42.0576485 313.71169,43.685395 C313.71169,43.793564 313.65169,43.8846907 313.56662,43.9384935 L313.566761,43.9384935 L313.56662,43.9384935 L313.567183,43.9384935 L312.862535,44.3455358 C312.817042,44.3724372 312.763662,44.3882119 312.706901,44.3882119 C312.650704,44.3882119 312.598028,44.3730006 312.552958,44.3465217 L311.846479,43.9384935 L311.846901,43.9384935 C311.761972,43.8846907 311.702113,43.793564 311.702113,43.685395 L311.702113,29.2375076 C311.702113,29.1293386 311.762113,29.0383527 311.847042,28.9842682 L311.846901,28.9842682 L311.847042,28.9842682 L311.846479,28.9842682 L312.551127,28.5775076 C312.596761,28.5503245 312.65,28.5346907 312.706901,28.5346907 C312.762958,28.5346907 312.815634,28.549902 312.860845,28.5763809 L313.567183,28.9842682 L313.566761,28.9842682 Z M279.055352,24.014409 C279.059577,23.9138457 279.108451,23.8163809 279.202113,23.7622964 C279.205775,23.7601837 290.304648,17.3521555 291.714507,16.5383527 C291.808169,16.4842682 291.916901,16.4906062 292.006056,16.5372259 L292.006197,16.5372259 L292.005915,16.5369443 L292.710563,16.943564 C292.756761,16.9694795 292.797042,17.0079302 292.825493,17.0570851 C292.853521,17.1056766 292.866761,17.1589161 292.866483,17.2111696 L292.866338,18.0269443 L292.866056,18.0265217 L292.866056,18.0266626 C292.86169,18.1272259 292.812958,18.2245499 292.719296,18.2786344 L280.206901,25.5025781 C280.113239,25.5568034 280.004366,25.5503245 279.915211,25.5037048 L279.915352,25.5037048 L279.915211,25.5037048 L279.915352,25.5041274 L279.210845,25.0973668 C279.164507,25.0714513 279.124225,25.0330006 279.095915,24.9838457 C279.067887,24.935395 279.054648,24.8821555 279.055061,24.8297612 L279.055061,24.0139865 L279.055352,24.0142682 L279.055211,24.0142682 L279.055352,24.014409 Z M279.915211,47.4203245 C280.004366,47.3737048 280.113239,47.3673668 280.206901,47.4214513 C280.210563,47.423564 291.309577,53.8315921 292.719296,54.645395 C292.812958,54.6994795 292.86169,54.7968034 292.866056,54.8975076 L292.866365,54.8970851 L292.866365,55.7106062 C292.867042,55.763564 292.853944,55.8177893 292.825493,55.8669443 C292.797324,55.915395 292.757887,55.953564 292.712535,55.9794795 L292.005915,56.3872259 L292.006056,56.3868034 C291.916761,56.4334231 291.808169,56.4397612 291.714507,56.3856766 L279.202113,49.161733 C279.108451,49.1077893 279.059577,49.0101837 279.055352,48.9096203 L279.055044,48.9100428 L279.055044,48.0963809 C279.054366,48.0434231 279.067465,47.9893386 279.095915,47.9401837 C279.123944,47.891733 279.163521,47.853564 279.209014,47.8277893 L279.915352,47.419902 L279.915352,47.4203245 L279.915352,47.4201837 L279.915211,47.4203245 Z M296.886197,54.898071 C296.890282,54.7973668 296.939296,54.7000428 297.032958,54.6459583 C297.036479,54.6438457 308.135493,48.2358175 309.545352,47.4220147 C309.639014,47.3679302 309.747746,47.3742682 309.836901,47.4210288 L309.836901,47.4208879 L309.837042,47.4208879 L309.836761,47.4204654 L310.541408,47.8273668 C310.587606,47.8531414 310.627887,47.8915921 310.656197,47.9407471 C310.684225,47.9893386 310.697465,48.0425781 310.697187,48.0948316 L310.697042,48.9106062 L310.696761,48.9101837 L310.696761,48.9103245 L310.696761,48.9101837 C310.692535,49.0108879 310.643662,49.1082119 310.55,49.1622964 L298.037606,56.38624 C297.943944,56.4403245 297.835211,56.4339865 297.745915,56.3873668 L297.746197,56.3877893 L297.041549,55.9808879 C296.995352,55.9551133 296.95507,55.9166626 296.926761,55.8675076 C296.898732,55.8189161 296.885493,55.7656766 296.88577,55.7134231 L296.885915,54.8976485 L296.886056,54.898071 L296.886056,54.8979302 L296.886197,54.898071 Z M277.905211,28.9842682 C277.990282,29.0383527 278.05,29.1293386 278.05,29.2375076 C278.05,29.241733 278.05,42.0576485 278.05,43.685395 C278.05,43.793564 277.990282,43.8846907 277.90507,43.9384935 L277.905211,43.9384935 L277.90507,43.9384935 L277.905634,43.9384935 L277.200986,44.3455358 C277.155493,44.3724372 277.102113,44.3882119 277.045352,44.3882119 C276.989155,44.3882119 276.936479,44.3730006 276.891408,44.3465217 L276.18493,43.9384935 L276.185493,43.9384935 L276.185352,43.9384935 L276.185493,43.9384935 C276.100423,43.8846907 276.040563,43.793564 276.040563,43.685395 L276.040563,29.2375076 C276.040563,29.1293386 276.100563,29.0383527 276.185493,28.9842682 L276.18493,28.9842682 L276.889577,28.5775076 C276.93507,28.5503245 276.988451,28.5346907 277.045352,28.5346907 C277.101408,28.5346907 277.154085,28.549902 277.199155,28.5763809 L277.905634,28.9842682 L277.905211,28.9842682 Z" id="Combined-Shape" fill="#FFFFFF" fill-rule="nonzero"></path>
        <path d="M248.962958,16.5000428 C259.988169,16.5000428 268.925634,25.4365217 268.925634,36.4618738 C268.925634,47.4877893 259.988169,56.4246907 248.962958,56.4246907 C237.937465,56.4246907 229,47.4877893 229,36.4618738 C229,25.4365217 237.937465,16.5000428 248.962958,16.5000428 Z" id="Fill-17-path" fill="#FFFFFF" fill-rule="nonzero"></path>
        <path d="M260.043944,47.0084935 C258.138592,47.0084935 256.770845,45.5896203 256.770845,43.8327189 L256.770845,43.8158175 C256.770845,42.0587752 258.15662,40.6206062 260.062254,40.6206062 C261.968028,40.6206062 263.334225,42.0418738 263.334225,43.7975076 L263.334225,43.8158175 C263.334225,45.5708879 261.949296,47.0084935 260.043944,47.0084935 Z" id="Fill-17-path" fill="#000000" fill-rule="nonzero"></path>
        <path d="M256.184225,32.6607471 L256.184225,27.0355358 C256.184225,26.4886344 256.628451,26.0452541 257.174648,26.0452541 C257.721408,26.0452541 258.163803,26.4886344 258.163803,27.0355358 L258.163803,32.6607471 C258.163803,33.20624 257.721408,33.6504654 257.174648,33.6504654 C256.628451,33.6504654 256.184225,33.20624 256.184225,32.6607471 Z" id="Fill-17-path" fill="#000000" fill-rule="nonzero"></path>
        <path d="M254.41338,46.9027189 L253.089718,44.9282119 L252.022817,44.9282119 L252.022817,46.9027189 L250.663944,46.9027189 L250.663944,40.7269443 L253.486901,40.7269443 C254.941549,40.7269443 255.815634,41.4948316 255.815634,42.7649724 L255.815634,42.7831414 C255.815634,43.7794795 255.278732,44.4068034 254.492676,44.6976485 L256.00169,46.9027189 L254.41338,46.9027189 Z" id="Fill-17-path" fill="#000000" fill-rule="nonzero"></path>
        <path d="M249.550423,33.6106062 L249.550423,25.133564 C249.550423,24.5872259 249.993521,24.1432823 250.541408,24.1432823 C251.087324,24.1432823 251.530986,24.5872259 251.530986,25.133564 L251.530986,33.6106062 C251.530986,34.1565217 251.087324,34.6006062 250.541408,34.6006062 C249.993521,34.6006062 249.550423,34.1565217 249.550423,33.6106062 Z" id="Fill-17-path" fill="#000000" fill-rule="nonzero"></path>
        <path d="M253.857746,36.5025781 C254.448732,36.5025781 254.927746,36.9811696 254.927746,37.5710288 C254.927746,38.1620147 254.448732,38.639902 253.857746,38.639902 C253.267324,38.639902 252.78831,38.1620147 252.78831,37.5710288 C252.78831,36.9811696 253.267324,36.5025781 253.857746,36.5025781 Z" id="Fill-17-path" fill="#000000" fill-rule="nonzero"></path>
        <path d="M252.867324,22.2818738 C252.867324,21.734409 253.311268,21.2915921 253.857746,21.2915921 C254.40507,21.2915921 254.847324,21.734409 254.847324,22.2818738 L254.847324,34.5610288 C254.847324,35.1072259 254.40507,35.5515921 253.857746,35.5515921 C253.311268,35.5515921 252.867324,35.1072259 252.867324,34.5610288 L252.867324,22.2818738 Z" id="Fill-17-path" fill="#000000" fill-rule="nonzero"></path>
        <polygon id="Fill-17-path" fill="#000000" fill-rule="nonzero" points="248.925634 43.7275076 248.925634 46.9027189 247.567183 46.9027189 247.567183 40.7269443 248.925634 40.7269443"></polygon>
        <path d="M246.232817,30.758071 L246.232817,22.2818738 C246.232817,21.734409 246.677183,21.2915921 247.223803,21.2915921 C247.769859,21.2915921 248.21338,21.734409 248.21338,22.2818738 L248.21338,30.758071 C248.21338,31.3055358 247.769859,31.7484935 247.223803,31.7484935 C246.677183,31.7484935 246.232817,31.3055358 246.232817,30.758071 Z" id="Fill-17-path" fill="#000000" fill-rule="nonzero"></path>
        <path d="M246.064225,45.0769443 C246.064225,46.3048316 245.129437,46.9913104 243.797042,46.9913104 C242.861972,46.9913104 241.918732,46.6652541 241.177324,46.0032823 L241.979155,45.0411696 C242.53493,45.5003245 243.118028,45.7920147 243.82507,45.7920147 C244.380704,45.7920147 244.71507,45.5708879 244.71507,45.2093386 L244.71507,45.1922964 C244.71507,44.8466626 244.502676,44.6708879 243.470423,44.4068034 C242.228451,44.0886344 241.423521,43.7434231 241.423521,42.518071 L241.423521,42.5003245 C241.423521,41.3804654 242.323521,40.6389161 243.58493,40.6389161 C244.485211,40.6389161 245.254507,40.919902 245.879437,41.4245499 L245.173521,42.4473668 C244.627324,42.0682119 244.089014,41.8382119 243.567465,41.8382119 C243.047324,41.8382119 242.77338,42.0765217 242.77338,42.3768034 L242.77338,42.3963809 C242.77338,42.8010288 243.038028,42.9320147 244.106056,43.2048316 C245.359014,43.5328597 246.064225,43.9825781 246.064225,45.059902 L246.064225,45.0769443 Z" id="Fill-17-path" fill="#000000" fill-rule="nonzero"></path>
        <path d="M239.599859,32.6607471 L239.599859,27.0355358 C239.599859,26.4886344 240.043099,26.0452541 240.590282,26.0452541 C241.13662,26.0452541 241.579296,26.4886344 241.579296,27.0355358 L241.579296,32.6607471 C241.579296,33.20624 241.13662,33.6504654 240.590282,33.6504654 C240.043099,33.6504654 239.599859,33.20624 239.599859,32.6607471 Z" id="Fill-17-path" fill="#000000" fill-rule="nonzero"></path>
        <path d="M237.757606,47.0084935 C235.940986,47.0084935 234.590563,45.6058175 234.590563,43.8327189 L234.590563,43.8158175 C234.590563,42.0587752 235.913239,40.6206062 237.810563,40.6206062 C238.97662,40.6206062 239.672113,41.0106062 240.246338,41.5742682 L239.381549,42.5703245 C238.903944,42.1396203 238.419718,41.8737048 237.801549,41.8737048 C236.761268,41.8737048 236.010282,42.7384935 236.010282,43.7975076 L236.010282,43.8158175 C236.010282,44.8728597 236.743521,45.7568034 237.801549,45.7568034 C238.509014,45.7568034 238.940141,45.4741274 239.425634,45.0324372 L240.290423,45.9068034 C239.65493,46.585395 238.949155,47.0084935 237.757606,47.0084935 Z" id="Fill-17-path" fill="#000000" fill-rule="nonzero"></path>
        <path d="M242.915915,24.1827189 C242.915915,23.6358175 243.359577,23.1924372 243.906761,23.1924372 C244.453239,23.1924372 244.897324,23.6358175 244.897324,24.1827189 L244.897324,31.7089161 C244.897324,32.2558175 244.453239,32.6997612 243.906761,32.6997612 C243.359577,32.6997612 242.915915,32.2558175 242.915915,31.7089161 L242.915915,24.1827189 Z" id="Fill-17-path" fill="#000000" fill-rule="nonzero"></path>
        <path d="M253.372535,41.9538457 L252.022817,41.9538457 L252.022817,43.7275076 L253.398873,43.7275076 C254.061268,43.7275076 254.438732,43.3745499 254.438732,42.8537048 L254.438732,42.83624 C254.438732,42.253564 254.034366,41.9538457 253.372535,41.9538457 Z" id="Fill-17-path" fill="#FFFFFF" fill-rule="nonzero"></path>
        <path d="M260.043944,41.8737048 C258.949437,41.8737048 258.191408,42.7384935 258.191408,43.7975076 L258.191408,43.8158175 C258.191408,44.8728597 258.967183,45.7568034 260.062254,45.7568034 C261.156056,45.7568034 261.91507,44.8918738 261.91507,43.8327189 L261.91507,43.8158175 C261.91507,42.7568034 261.13831,41.8737048 260.043944,41.8737048 Z" id="Fill-17-path" fill="#FFFFFF" fill-rule="nonzero"></path>
        <rect id="Rectangle" fill="#FFFFFF" x="173" y="39" width="39" height="16" rx="3"></rect>
        <path d="M179.632,52 C179.734667,52 179.816333,51.9673333 179.877,51.902 C179.937667,51.8366667 179.968,51.7573333 179.968,51.664 L179.968,51.664 L179.968,45.644 L181.914,49.34 C182.035333,49.5453333 182.194,49.648 182.39,49.648 L182.39,49.648 L182.978,49.648 C183.183333,49.648 183.337333,49.5453333 183.44,49.34 L183.44,49.34 L185.386,45.644 L185.386,51.664 C185.386,51.7573333 185.418667,51.8366667 185.484,51.902 C185.549333,51.9673333 185.628667,52 185.722,52 L185.722,52 L186.926,52 C187.028667,52 187.112667,51.9696667 187.178,51.909 C187.243333,51.8483333 187.276,51.7666667 187.276,51.664 L187.276,51.664 L187.276,42.55 C187.276,42.4473333 187.243333,42.3633333 187.178,42.298 C187.112667,42.2326667 187.028667,42.2 186.926,42.2 L186.926,42.2 L185.806,42.2 C185.628667,42.2 185.488667,42.2886667 185.386,42.466 L185.386,42.466 L182.684,47.478 L179.982,42.466 C179.879333,42.2886667 179.739333,42.2 179.562,42.2 L179.562,42.2 L178.428,42.2 C178.325333,42.2 178.243667,42.2326667 178.183,42.298 C178.122333,42.3633333 178.092,42.4473333 178.092,42.55 L178.092,42.55 L178.092,51.664 C178.092,51.7573333 178.124667,51.8366667 178.19,51.902 C178.255333,51.9673333 178.334667,52 178.428,52 L178.428,52 L179.632,52 Z M190.104,52 C190.3,52 190.435333,51.9113333 190.51,51.734 L190.51,51.734 L191.154,50.04 L195.298,50.04 L195.942,51.734 C196.016667,51.9113333 196.152,52 196.348,52 L196.348,52 L197.594,52 C197.668667,52 197.736333,51.972 197.797,51.916 C197.857667,51.86 197.888,51.79 197.888,51.706 L197.888,51.706 L197.86,51.58 L194.5,42.55 C194.406667,42.3166667 194.238667,42.2 193.996,42.2 L193.996,42.2 L192.456,42.2 C192.213333,42.2 192.045333,42.3166667 191.952,42.55 L191.952,42.55 L188.592,51.58 L188.564,51.706 C188.564,51.79 188.592,51.86 188.648,51.916 C188.704,51.972 188.774,52 188.858,52 L188.858,52 L190.104,52 Z M194.808,48.416 L191.644,48.416 L193.226,44.104 L194.808,48.416 Z M200.856,52 C200.958667,52 201.042667,51.9696667 201.108,51.909 C201.173333,51.8483333 201.206,51.7666667 201.206,51.664 L201.206,51.664 L201.206,48.388 L203.264,48.388 C204.393333,48.388 205.28,48.129 205.924,47.611 C206.568,47.093 206.89,46.33 206.89,45.322 C206.89,44.3046667 206.568,43.53 205.924,42.998 C205.28,42.466 204.393333,42.2 203.264,42.2 L203.264,42.2 L199.512,42.2 C199.409333,42.2 199.327667,42.2326667 199.267,42.298 C199.206333,42.3633333 199.176,42.4473333 199.176,42.55 L199.176,42.55 L199.176,51.664 C199.176,51.7573333 199.208667,51.8366667 199.274,51.902 C199.339333,51.9673333 199.418667,52 199.512,52 L199.512,52 L200.856,52 Z M203.194,46.82 L201.178,46.82 L201.178,43.768 L203.194,43.768 C203.754,43.768 204.171667,43.9033333 204.447,44.174 C204.722333,44.4446667 204.86,44.8226667 204.86,45.308 C204.86,45.8026667 204.717667,46.1783333 204.433,46.435 C204.148333,46.6916667 203.735333,46.82 203.194,46.82 L203.194,46.82 Z" id="MAP" fill="#1A1919" fill-rule="nonzero"></path>
    </g>
</svg>